<?xml version="1.0" encoding="utf-8"?>
<!-- Generator: Adobe Illustrator 16.0.0, SVG Export Plug-In . SVG Version: 6.00 Build 0)  -->
<!DOCTYPE svg PUBLIC "-//W3C//DTD SVG 1.1//EN" "http://www.w3.org/Graphics/SVG/1.1/DTD/svg11.dtd">
<svg version="1.1" id="Ebene_1" xmlns="http://www.w3.org/2000/svg" xmlns:xlink="http://www.w3.org/1999/xlink" x="0px" y="0px"
	 width="1500px" height="1500px" viewBox="0 0 1500 1500" enable-background="new 0 0 1500 1500" xml:space="preserve">
<path fill="#63241B" d="M666.601,776.298c-69.746-17.437-233.647,0-233.647,0s36.233-78.011,26.747-177.851
	c-4.672-48.822-84.879-218.547-245.294-20.924c0,0,82.543,265.032,134.853,561.45c0,0,153.439,24.411,285.956-3.487
	C704.96,1121.537,736.346,793.734,666.601,776.298z M278.363,698.88c0,0-6.661-30.025-18.691-70.408c0,0,59.178-35.708,71.14,9.067
	C342.773,682.315,278.363,698.88,278.363,698.88z M605.747,992.928c-40.277,78.916-254.501,5.091-254.501,5.091l-28.734-128.61
	c145.697-49.904,247.316-30.34,247.316-30.34S666.531,873.873,605.747,992.928z"/>
<path fill="#F58106" d="M240.525,777.694c0,0-64.584-14.508-105.175-10.602c-79.754,7.635-109.675,4.182-120.799,0.974
	c0.593-0.174,1.185-0.381,1.778-0.555c2.093-0.736,4.359-1.536,6.801-2.374c4.882-1.71,10.358-3.661,16.321-5.752
	c5.927-2.302,12.309-4.778,19.074-7.431c3.383-1.325,6.835-2.684,10.392-4.042c1.744-0.664,3.697-1.464,5.267-2.023
	c1.813-0.698,3.661-1.362,5.51-2.057c3.73-1.502,7.357-2.408,11.088-3.627c3.732-1.083,7.672-2.023,11.579-3
	c7.916-1.675,15.937-3.28,24.096-4.253c16.251-2.163,32.816-2.721,48.02-2.023c1.849,0.068,3.767,0.208,5.51,0.347
	c1.917,0.174,3.8,0.385,5.684,0.559c3.767,0.348,7.463,0.664,11.09,1.012c7.184,0.626,14.019,1.257,20.295,1.812
	c4.255,0.385,8.266,0.732,11.996,1.049L240.525,777.694z"/>
<path fill="#F58106" d="M223.648,716.003c-1.778-0.068-3.557-0.14-5.405-0.208c-6.312-0.245-13.147-0.49-20.367-0.77
	c-3.627-0.102-7.322-0.242-11.124-0.348c-1.917-0.071-3.836-0.14-5.788-0.173c-2.163-0.072-4.151-0.072-6.208-0.038
	c-16.321,0.317-33.478,1.989-50.426,5.303c-8.509,1.57-16.844,3.8-25.003,6.208c-4.046,1.325-8.022,2.578-11.962,4.08
	c-3.906,1.57-7.986,2.963-11.438,4.672c-1.813,0.838-3.593,1.639-5.336,2.442c-1.813,0.834-3.557,1.672-5.335,2.51
	c-3.417,1.604-6.731,3.208-10.009,4.778c-6.486,3.102-12.659,6.031-18.342,8.718c-5.755,2.51-11.021,4.813-15.729,6.869
	c-2.336,1.012-4.533,1.988-6.556,2.86c-2.023,0.8-3.906,1.532-5.614,2.196c-0.175,0.068-0.385,0.14-0.559,0.208
	c-0.279-0.279-0.349-0.415-0.349-0.415c17.506-69.433,76.929-120.87,117.103-133.218c40.138-12.342,68.072-26.884,68.072-26.884
	L223.648,716.003z"/>
<path fill="#FFCB27" d="M569.55,375.262c-64.515,56.948-6.416,97.644-6.416,97.644c123.065-45.753,174.363,9.87,174.363,9.87
	l-1.953,96.806c-21.167-39.056-46.869-69.466-99.178-75.882c-21.761-2.651-62.631,3.104-80.766,11.647
	c-24.445,11.473-63.363,27.898-65.107,118.567c-0.419,22.354,2.929,61.272,15.1,79.022c11.438,16.67,27.306,24.377,48.822,29.642
	c66.258,16.285,153.962-18.833,176.56-53.704l-6.242,109.5l22.075-5.79c0,0,17.437-247.037,20.924-312.11
	C771.219,415.366,634.064,318.314,569.55,375.262z M667.193,682.734c-78.463,25.562-59.283-47.671-59.283-47.671
	s13.949-56.947,63.922-51.717c49.973,5.231,59.283,40.104,59.283,40.104S745.657,657.138,667.193,682.734z"/>
<path fill="#854009" d="M768.494,786.76l14.93-264.597c0,0,9.372-18.962,22.613-13.276l-1.107,82.586
	c0,0,34.809-62.963,110.265-70.806c13.775-1.432,28.524-4.609,41.867,2.369c9.444,4.939-6.739,88.711-6.739,88.711
	s-2.707,20.995-14.33,28.984c0,0-9.59-3.78-20.883-7.744c-23.676-8.313-60.952-14.501-110.18-6.062l2.326,203.862
	C779.064,813.35,768.494,786.76,768.494,786.76z"/>
<path fill="#261E1B" d="M730.243,834.709c0,0,14.821,171.748-20.631,293.803c0,0,52.67,13.514,90.083-10.462l-9.876-180.755
	l99.095,165.063l53.181-421.088c0,0-43.591-44.462-108.105-35.744l18.016,337.104l-92.409-159.253
	C759.596,823.376,758.142,817.273,730.243,834.709z"/>
<path fill="#2B1D14" d="M1125.176,977.688c0,0-24.689-68.281-161.878-65.979c0,0,29.396-208.085,59.004-445.778
	c0,0-20.784,4.499-38.013,9.903l-71.21,636.147c0,0,89.835,34.141,173.458,18.028
	C1187.075,1110.656,1125.176,977.688,1125.176,977.688z M1078.482,1019.082c-20.089,35.22-80.977,30.581-132.028,12.658
	l11.333-86.031c53.773,1.57,84.672,12.973,84.672,12.973C1080.819,970.188,1091.142,996.867,1078.482,1019.082z"/>
<path fill="#A53608" d="M1063.226,730.752l-9.828,162.08c0,0,12.519,17.834,26.298,1.454l13.435-158.705
	C1083.199,724.482,1063.226,730.752,1063.226,730.752z"/>
<path fill="#A53608" d="M1018.498,690.727c0.919,15.09,22.708,26.032,48.675,24.452c25.961-1.58,46.258-15.083,45.349-30.17
	c-0.916-15.079-22.708-26.025-48.672-24.441C1037.886,662.141,1017.582,675.65,1018.498,690.727z"/>
<path fill="#D57E3B" d="M1231.745,648.28c0,0-89.446-7.357-100.466,7.637c-9.764,13.427-14.542,97.227-14.542,97.227
	l-10.741,183.222l-0.14,3.766c20.995,9.519,32.536-4.638,32.536-4.638s-1.43-24.656,3.732-63.228l27.2,0.14
	c15.101,95.866,0.279,154.557,0.279,154.557c16.006,26.992,44.742,21.098,44.742,21.098c2.438-34.454-13.183-173.805-13.183-173.805
	c50.6,0.837,57.506,7.74,86.694-10.148c37.662-23.049,46.448-77.521,48.962-126.727
	C1341.247,650.094,1231.745,648.28,1231.745,648.28z M1259.681,810.612c-8.544,44.496-61.132,40.104-61.132,40.104l-53.427-2.929
	c0,0,2.303-36.338,15.73-88.262l53.389,3.45C1214.241,762.976,1268.222,766.149,1259.681,810.612z"/>
<path fill="#464C62" d="M1353.766,623.277l-21.9,285.538c-30.514-14.297-47.215-18.867-82.228-16.879
	c-34.978,1.952-42.756,88.854,1.918,103.223c44.704,14.334,68.976,4.672,68.976,4.672l-0.382,16.463l15.309,0.139l63.329-357.097
	l7.288-41.115C1388.778,595.169,1353.766,623.277,1353.766,623.277z M1323.426,963.146c-2.929,20.331-28.909,24.796-50.007,21.309
	s-28.63-20.402-26.396-33.967c2.23-13.567,14.61-25.875,35.707-22.354C1303.83,931.621,1326.531,941.49,1323.426,963.146z"/>
<path fill="#6F6472" d="M1262.27,1019.371c0,0-16.371,37.001-3.569,58.857c0,0,54.557,88.803,174.281,59.825
	c64.089-15.509,55.493-75.93,55.493-75.93s-8.023-46.979-63.526-55.026c0,0-20.688-0.504-17.876-22.033
	c0,0,1.168-29.551,45.424,13.41c0,0,13.901-14.426,12.052-39.123c0,0-12.42-15.502-30.871-27.186
	c-20.27-12.832-47.194-21.432-58.214-8.712c-31.236,36.038-19.609,62.481-7.523,76.183c15.536,17.619,37.454,16.639,37.454,16.639
	s48.001,0.272,32.305,32.23c-5.687,11.582-16.84,17.109-26.709,21.199C1351.123,1094.531,1262.27,1019.371,1262.27,1019.371z"/>
</svg>
